# File created by Blade
# Date/Time:  Tue Sep 23 19:22:32 2014
# Frame Rate: 120.000 fps
#------------------------------------------------------
:FULLY-SPECIFIED
:DEGREES
1663
root 3.010808 34.493572 3.610430 122.718713 -27.433571 -41.764181
Spine -69.443923 -12.306625 21.030420
Head -9.682590 23.258338 35.092349
LeftShoulder -25.240345 37.720137 26.395915
LeftArm 114.495672 -72.182107 -156.364638
LeftForeArm 40.028515 -0.000000 127.741370
LeftHand 20.533174 -0.000000 26.750622
LeftHandThumb1 -26.253704 0.000000 33.147579
RightShoulder -49.636189 -48.374584 10.217707
RightArm 34.553536 61.202146 95.824460
RightForeArm 79.661343 0.000000 15.754445
RightHand 11.796666 -0.000000 17.937770
RightHandThumb1 -24.326973 -0.000000 -32.862282
LeftUpLeg -108.870786 30.756089 -15.079439
LeftLeg 8.093927 -0.000000 -0.000000
LeftFoot -5.268046 13.598728 2.434223
LeftToeBase 3.113064 -0.000000 -0.000000
RightUpLeg 1.832076 0.552506 -22.034206
RightLeg 90.065112 -0.000000 -0.000000
RightFoot 45.928756 17.629082 -2.646649
RightToeBase 18.954899 -0.000000 -0.000000
1664
root 2.997817 34.500676 3.610598 122.959662 -27.325791 -41.813859
Spine -69.620367 -12.252536 21.126936
Head -9.570228 23.373152 35.228611
LeftShoulder -25.175131 37.632638 26.601291
LeftArm 114.923878 -72.234911 -156.726192
LeftForeArm 39.881193 0.000000 127.646516
LeftHand 20.606225 -0.000000 26.788781
LeftHandThumb1 -26.253704 0.000000 33.147579
RightShoulder -49.355681 -48.209520 9.712098
RightArm 34.182360 61.366947 94.968915
RightForeArm 79.629603 -0.000000 15.218225
RightHand 11.593896 -0.000000 18.256974
RightHandThumb1 -24.326973 -0.000000 -32.862282
LeftUpLeg -109.071690 30.790764 -15.262438
LeftLeg 7.840878 -0.000000 -0.000000
LeftFoot -5.195685 13.522235 2.439310
LeftToeBase 3.204933 -0.000000 -0.000000
RightUpLeg 2.240133 0.515702 -22.149334
RightLeg 89.416954 -0.000000 -0.000000
RightFoot 45.962707 17.556877 -2.623596
RightToeBase 19.135365 -0.000000 -0.000000
1665
root 2.986953 34.511022 3.614269 123.306369 -27.207202 -41.883041
Spine -69.879081 -12.124916 21.204110
Head -9.482143 23.427176 35.360854
LeftShoulder -25.115090 37.625567 26.735966
LeftArm 115.550582 -72.203735 -157.240808
LeftForeArm 39.745023 -0.000000 127.590689
LeftHand 20.688869 -0.000000 26.620289
LeftHandThumb1 -26.253704 0.000000 33.147579
RightShoulder -49.156923 -48.064956 9.291979
RightArm 33.503454 61.291703 93.738763
RightForeArm 79.921109 -0.000000 14.688270
RightHand 11.486427 -0.000000 18.446047
RightHandThumb1 -24.326973 -0.000000 -32.862282
LeftUpLeg -109.412599 30.808460 -15.533710
LeftLeg 7.611998 -0.000000 -0.000000
LeftFoot -5.099469 13.401478 2.420231
LeftToeBase 3.184566 -0.000000 -0.000000
RightUpLeg 2.507716 0.480554 -22.269877
RightLeg 88.807048 -0.000000 -0.000000
RightFoot 46.018845 17.547436 -2.588389
RightToeBase 19.111818 -0.000000 -0.000000
1666
root 2.976385 34.521319 3.618352 123.640861 -27.101750 -41.965979
Spine -70.116714 -12.021617 21.289690
Head -9.426782 23.480168 35.525700
LeftShoulder -25.120211 37.603466 26.873303
LeftArm 115.973983 -72.172150 -157.570491
LeftForeArm 39.801191 -0.000000 127.551557
LeftHand 20.699518 -0.000000 26.506946
LeftHandThumb1 -26.253704 0.000000 33.147579
RightShoulder -48.871675 -47.900159 8.803476
RightArm 33.103183 61.415803 92.841733
RightForeArm 79.992645 0.000000 14.145814
RightHand 11.329583 -0.000000 18.665982
RightHandThumb1 -24.326973 -0.000000 -32.862282
LeftUpLeg -109.723402 30.831260 -15.815509
LeftLeg 7.359221 -0.000000 -0.000000
LeftFoot -4.988143 13.294607 2.459631
LeftToeBase 3.253837 -0.000000 -0.000000
RightUpLeg 2.782863 0.430592 -22.405500
RightLeg 88.231178 -0.000000 -0.000000
RightFoot 45.990928 17.419731 -2.610775
RightToeBase 19.086291 -0.000000 -0.000000
1667
root 2.964828 34.531557 3.622815 124.000391 -26.971369 -42.085993
Spine -70.351721 -11.866042 21.349749
Head -9.374237 23.508889 35.704855
LeftShoulder -25.078277 37.589039 27.056572
LeftArm 116.223337 -72.152249 -157.739236
LeftForeArm 39.986761 -0.000000 127.523492
LeftHand 20.546998 -0.000000 26.566841
LeftHandThumb1 -26.253704 0.000000 33.147579
RightShoulder -48.628874 -47.763630 8.360561
RightArm 32.664015 61.533093 91.953859
RightForeArm 79.969047 -0.000000 13.691611
RightHand 11.155742 0.000000 18.767418
RightHandThumb1 -24.326973 -0.000000 -32.862282
LeftUpLeg -110.021947 30.907683 -16.019829
LeftLeg 7.123850 -0.000000 -0.000000
LeftFoot -4.869482 13.292293 2.555296
LeftToeBase 3.243116 -0.000000 -0.000000
RightUpLeg 3.019170 0.437807 -22.532897
RightLeg 87.659541 -0.000000 -0.000000
RightFoot 46.015549 17.378870 -2.574059
RightToeBase 19.446694 -0.000000 -0.000000
1668
root 2.954469 34.544207 3.626456 124.373877 -26.813272 -42.220615
Spine -70.578597 -11.702306 21.466834
Head -9.330609 23.582823 35.914473
LeftShoulder -25.045469 37.505866 27.259441
LeftArm 116.330631 -72.303373 -157.771512
LeftForeArm 40.179824 -0.000000 127.493578
LeftHand 20.275407 -0.000000 26.847631
LeftHandThumb1 -26.253704 0.000000 33.147579
RightShoulder -48.265030 -47.596843 7.805790
RightArm 32.106429 61.617346 90.974436
RightForeArm 80.080259 -0.000000 13.245425
RightHand 10.942522 -0.000000 18.856665
RightHandThumb1 -24.326973 -0.000000 -32.862282
LeftUpLeg -110.374580 31.008102 -16.230819
LeftLeg 6.939433 -0.000000 -0.000000
LeftFoot -4.722088 13.241873 2.646345
LeftToeBase 3.182442 -0.000000 -0.000000
RightUpLeg 3.199896 0.474269 -22.655080
RightLeg 87.140842 -0.000000 -0.000000
RightFoot 45.994216 17.500107 -2.652256
RightToeBase 19.567159 -0.000000 -0.000000
1669
root 2.941161 34.551935 3.631039 124.672187 -26.697271 -42.389386
Spine -70.728042 -11.586805 21.511788
Head -9.292223 23.629768 36.183250
LeftShoulder -25.058341 37.454771 27.430581
LeftArm 116.784541 -72.314663 -158.135679
LeftForeArm 39.593601 -0.000000 127.495676
LeftHand 20.721891 -0.000000 26.411225
LeftHandThumb1 -26.253704 0.000000 33.147579
RightShoulder -48.004705 -47.486196 7.404008
RightArm 31.643362 61.569762 90.014545
RightForeArm 80.292490 0.000000 12.797330
RightHand 10.788344 -0.000000 18.931261
RightHandThumb1 -24.326973 -0.000000 -32.862282
LeftUpLeg -110.636617 31.132715 -16.467567
LeftLeg 6.769480 -0.000000 -0.000000
LeftFoot -4.612492 13.183100 2.810253
LeftToeBase 3.050299 -0.000000 -0.000000
RightUpLeg 3.470652 0.516408 -22.822025
RightLeg 86.606523 -0.000000 -0.000000
RightFoot 46.047840 17.357740 -2.638186
RightToeBase 19.143583 -0.000000 -0.000000
1670
root 2.931837 34.562196 3.636220 125.048509 -26.539530 -42.548930
Spine -70.919009 -11.400098 21.550808
Head -9.350050 23.627444 36.412102
LeftShoulder -25.058880 37.417567 27.592730
LeftArm 117.093694 -72.275548 -158.313459
LeftForeArm 39.540819 -0.000000 127.450144
LeftHand 20.817466 0.000000 26.446546
LeftHandThumb1 -26.253704 0.000000 33.147579
RightShoulder -47.913209 -47.373175 7.118014
RightArm 31.524349 61.589988 89.375521
RightForeArm 80.406472 -0.000000 12.284919
RightHand 10.652649 -0.000000 19.035740
RightHandThumb1 -24.326973 -0.000000 -32.862282
LeftUpLeg -110.967485 31.257553 -16.611764
LeftLeg 6.617421 -0.000000 -0.000000
LeftFoot -4.434998 13.269146 3.018072
LeftToeBase 2.880717 -0.000000 -0.000000
RightUpLeg 3.626330 0.557805 -22.965280
RightLeg 86.101694 -0.000000 -0.000000
RightFoot 46.022225 17.357090 -2.631256
RightToeBase 19.518322 -0.000000 -0.000000
1671
root 2.928480 34.571021 3.645405 125.461449 -26.414602 -42.671449
Spine -71.175213 -11.230187 21.626300
Head -9.376981 23.636704 36.651057
LeftShoulder -25.074443 37.392002 27.744251
LeftArm 117.231463 -72.264708 -158.348695
LeftForeArm 39.656652 -0.000000 127.444570
LeftHand 20.650892 -0.000000 26.617962
LeftHandThumb1 -26.253704 0.000000 33.147579
RightShoulder -47.698455 -47.227702 6.688572
RightArm 31.233571 61.610601 88.640025
RightForeArm 80.551223 -0.000000 11.825123
RightHand 10.497351 -0.000000 19.126711
RightHandThumb1 -24.326973 -0.000000 -32.862282
LeftUpLeg -111.353799 31.298942 -16.825658
LeftLeg 6.467628 -0.000000 -0.000000
LeftFoot -4.250391 13.291514 3.284000
LeftToeBase 2.681913 -0.000000 -0.000000
RightUpLeg 3.740068 0.551169 -23.142675
RightLeg 85.580770 -0.000000 -0.000000
RightFoot 46.132305 17.503298 -2.576108
RightToeBase 19.546808 -0.000000 -0.000000
1672
root 2.917836 34.578747 3.648983 125.741287 -26.253845 -42.795218
Spine -71.302231 -11.106695 21.688963
Head -9.414536 23.627026 36.925627
LeftShoulder -25.071065 37.362751 27.892764
LeftArm 117.604274 -72.271436 -158.577201
LeftForeArm 39.138246 -0.000000 127.446921
LeftHand 20.963336 -0.000000 26.345232
LeftHandThumb1 -26.253704 0.000000 33.147579
RightShoulder -47.450562 -47.059221 6.270460
RightArm 30.974015 61.715477 87.945133
RightForeArm 80.515328 -0.000000 11.367467
RightHand 10.442250 -0.000000 19.117408
RightHandThumb1 -24.326973 -0.000000 -32.862282
LeftUpLeg -111.561261 31.458064 -16.787539
LeftLeg 6.403237 -0.000000 -0.000000
LeftFoot -4.135565 13.427482 3.449385
LeftToeBase 2.549682 -0.000000 -0.000000
RightUpLeg 3.985545 0.623198 -23.259553
RightLeg 85.057489 -0.000000 -0.000000
RightFoot 46.112122 17.674173 -2.569874
RightToeBase 19.407455 -0.000000 -0.000000
